<?xml version="1.0" standalone="no"?>
<!DOCTYPE svg PUBLIC "-//W3C//DTD SVG 20010904//EN"
 "http://www.w3.org/TR/2001/REC-SVG-20010904/DTD/svg10.dtd">
<svg version="1.0" xmlns="http://www.w3.org/2000/svg"
 width="256.000000pt" height="256.000000pt" viewBox="0 0 256.000000 256.000000"
 preserveAspectRatio="xMidYMid meet">

<g transform="translate(0.000000,256.000000) scale(0.100000,-0.100000)"
fill="#000000" stroke="none">
<path d="M1127 2549 c-521 -46 -813 -297 -857 -737 -14 -134 -3 -288 20 -285
15 3 476 139 1095 323 187 56 347 102 355 103 12 1 325 -172 544 -301 15 -8
-2 187 -23 269 -37 142 -94 242 -196 343 -112 111 -246 183 -447 241 -169 49
-302 61 -491 44z"/>
<path d="M810 1484 c-143 -39 -229 -139 -230 -267 0 -73 17 -114 75 -176 62
-66 126 -93 235 -99 70 -3 95 0 142 17 129 49 198 139 198 258 0 134 -96 240
-248 272 -68 14 -104 13 -172 -5z m234 -78 c140 -69 174 -214 75 -321 -85 -92
-238 -115 -360 -54 -50 25 -105 91 -117 142 -48 188 200 332 402 233z"/>
<path d="M1570 1485 c-147 -42 -240 -161 -227 -290 7 -68 35 -122 88 -169 71
-65 118 -81 239 -81 95 0 111 3 162 28 143 70 204 227 139 355 -27 54 -111
127 -169 147 -69 24 -167 28 -232 10z m199 -62 c202 -65 227 -295 42 -390 -55
-29 -72 -33 -139 -32 -88 1 -122 11 -185 55 -77 55 -109 161 -71 240 23 48 99
112 153 128 63 20 138 19 200 -1z"/>
<path d="M673 524 c-119 -82 -195 -143 -220 -176 -35 -49 -64 -151 -70 -256
l-6 -92 907 0 906 0 -6 42 c-12 95 -36 203 -56 256 -25 67 -105 151 -218 227
l-70 49 -38 -23 c-20 -12 -74 -40 -118 -62 l-82 -40 -148 -210 c-81 -116 -151
-212 -154 -214 -4 -2 -79 92 -167 209 l-161 213 -87 41 c-48 23 -100 51 -115
62 l-28 20 -69 -46z"/>
</g>
</svg>
